# xmcd CD database file
#
# Track frame offsets:
#	150
#	16582
#	26500
#	45827
#	58375
#	75635
#	90640
#	107417
#	125062
#	141197
#	154597
#	170732
#	190280
#	205657
#
# Disc length: 2932 seconds
#
# Revision: 0
# Processed by: cddbd v1.4PL0 Copyright (c) Steve Scherf et al.
# Submitted via: CDex 1.50beta9
#
DISCID=af0b720e
DTITLE=Cris Monen Jazz and Blues Band - You've got to pay the band
DYEAR=1900
DGENRE=Jazz
TTITLE0=Oh babe
TTITLE1=Ma, she's making eyes at me
TTITLE2=Blue light boogie
TTITLE3=Lulu's back in town
TTITLE4=After you've gone
TTITLE5=One note samba
TTITLE6=Georgia Mae
TTITLE7=Hush, hush
TTITLE8=Some of these days
TTITLE9=A good girl is hard to find
TTITLE10=I'm crazy 'bout my baby
TTITLE11=She's funny that way
TTITLE12=Saturday night fish fry
TTITLE13=You've got to pay the band
EXTD=
EXTT0=
EXTT1=
EXTT2=
EXTT3=
EXTT4=
EXTT5=
EXTT6=
EXTT7=
EXTT8=
EXTT9=
EXTT10=
EXTT11=
EXTT12=
EXTT13=
PLAYORDER=
